<svg width="1363" height="163" viewBox="0 0 1363 163" fill="none" xmlns="http://www.w3.org/2000/svg">
<path d="M0 15C0 6.71573 6.71573 0 15 0H37V163H15C6.71573 163 0 156.284 0 148V15Z" fill="#424242"/>
<rect width="1097" height="163" transform="translate(37)" fill="#F0F0F0"/>
<path d="M101.906 53.9219L94.3945 51.2383V48.0859L104.602 52.375V54.6367L101.906 53.9219ZM94.3945 56.1719L101.918 53.4297L104.602 52.7852V55.0352L94.3945 59.3242V56.1719ZM121.781 56.5352C121.781 56.2305 121.734 55.957 121.641 55.7148C121.555 55.4648 121.391 55.2383 121.148 55.0352C120.906 54.8242 120.566 54.6172 120.129 54.4141C119.691 54.2109 119.125 54 118.43 53.7812C117.656 53.5312 116.922 53.25 116.227 52.9375C115.539 52.625 114.93 52.2617 114.398 51.8477C113.875 51.4258 113.461 50.9375 113.156 50.3828C112.859 49.8281 112.711 49.1836 112.711 48.4492C112.711 47.7383 112.867 47.0938 113.18 46.5156C113.492 45.9297 113.93 45.4297 114.492 45.0156C115.055 44.5938 115.719 44.2695 116.484 44.043C117.258 43.8164 118.105 43.7031 119.027 43.7031C120.285 43.7031 121.383 43.9297 122.32 44.3828C123.258 44.8359 123.984 45.457 124.5 46.2461C125.023 47.0352 125.285 47.9375 125.285 48.9531H121.793C121.793 48.4531 121.688 48.0156 121.477 47.6406C121.273 47.2578 120.961 46.957 120.539 46.7383C120.125 46.5195 119.602 46.4102 118.969 46.4102C118.359 46.4102 117.852 46.5039 117.445 46.6914C117.039 46.8711 116.734 47.1172 116.531 47.4297C116.328 47.7344 116.227 48.0781 116.227 48.4609C116.227 48.75 116.297 49.0117 116.438 49.2461C116.586 49.4805 116.805 49.6992 117.094 49.9023C117.383 50.1055 117.738 50.2969 118.16 50.4766C118.582 50.6562 119.07 50.832 119.625 51.0039C120.555 51.2852 121.371 51.6016 122.074 51.9531C122.785 52.3047 123.379 52.6992 123.855 53.1367C124.332 53.5742 124.691 54.0703 124.934 54.625C125.176 55.1797 125.297 55.8086 125.297 56.5117C125.297 57.2539 125.152 57.918 124.863 58.5039C124.574 59.0898 124.156 59.5859 123.609 59.9922C123.062 60.3984 122.41 60.707 121.652 60.918C120.895 61.1289 120.047 61.2344 119.109 61.2344C118.266 61.2344 117.434 61.125 116.613 60.9062C115.793 60.6797 115.047 60.3398 114.375 59.8867C113.711 59.4336 113.18 58.8555 112.781 58.1523C112.383 57.4492 112.184 56.6172 112.184 55.6562H115.711C115.711 56.1875 115.793 56.6367 115.957 57.0039C116.121 57.3711 116.352 57.668 116.648 57.8945C116.953 58.1211 117.312 58.2852 117.727 58.3867C118.148 58.4883 118.609 58.5391 119.109 58.5391C119.719 58.5391 120.219 58.4531 120.609 58.2812C121.008 58.1094 121.301 57.8711 121.488 57.5664C121.684 57.2617 121.781 56.918 121.781 56.5352ZM130.852 42.9883V61H127.477V42.9883H130.852ZM138.844 48.3203L133.336 54.6016L130.383 57.5898L129.152 55.1523L131.496 52.1758L134.789 48.3203H138.844ZM135.34 61L131.59 55.1406L133.922 53.1016L139.23 61H135.34ZM143.859 48.3203V61H140.473V48.3203H143.859ZM140.262 45.0156C140.262 44.5234 140.434 44.1172 140.777 43.7969C141.121 43.4766 141.582 43.3164 142.16 43.3164C142.73 43.3164 143.188 43.4766 143.531 43.7969C143.883 44.1172 144.059 44.5234 144.059 45.0156C144.059 45.5078 143.883 45.9141 143.531 46.2344C143.188 46.5547 142.73 46.7148 142.16 46.7148C141.582 46.7148 141.121 46.5547 140.777 46.2344C140.434 45.9141 140.262 45.5078 140.262 45.0156ZM149.953 51.0273V61H146.578V48.3203H149.742L149.953 51.0273ZM149.461 54.2148H148.547C148.547 53.2773 148.668 52.4336 148.91 51.6836C149.152 50.9258 149.492 50.2812 149.93 49.75C150.367 49.2109 150.887 48.8008 151.488 48.5195C152.098 48.2305 152.777 48.0859 153.527 48.0859C154.121 48.0859 154.664 48.1719 155.156 48.3438C155.648 48.5156 156.07 48.7891 156.422 49.1641C156.781 49.5391 157.055 50.0352 157.242 50.6523C157.438 51.2695 157.535 52.0234 157.535 52.9141V61H154.137V52.9023C154.137 52.3398 154.059 51.9023 153.902 51.5898C153.746 51.2773 153.516 51.0586 153.211 50.9336C152.914 50.8008 152.547 50.7344 152.109 50.7344C151.656 50.7344 151.262 50.8242 150.926 51.0039C150.598 51.1836 150.324 51.4336 150.105 51.7539C149.895 52.0664 149.734 52.4336 149.625 52.8555C149.516 53.2773 149.461 53.7305 149.461 54.2148ZM166.945 58.1406V52.4922C166.945 52.0859 166.879 51.7383 166.746 51.4492C166.613 51.1523 166.406 50.9219 166.125 50.7578C165.852 50.5938 165.496 50.5117 165.059 50.5117C164.684 50.5117 164.359 50.5781 164.086 50.7109C163.812 50.8359 163.602 51.0195 163.453 51.2617C163.305 51.4961 163.23 51.7734 163.23 52.0938H159.855C159.855 51.5547 159.98 51.043 160.23 50.5586C160.48 50.0742 160.844 49.6484 161.32 49.2812C161.797 48.9062 162.363 48.6133 163.02 48.4023C163.684 48.1914 164.426 48.0859 165.246 48.0859C166.23 48.0859 167.105 48.25 167.871 48.5781C168.637 48.9062 169.238 49.3984 169.676 50.0547C170.121 50.7109 170.344 51.5312 170.344 52.5156V57.9414C170.344 58.6367 170.387 59.207 170.473 59.6523C170.559 60.0898 170.684 60.4727 170.848 60.8008V61H167.438C167.273 60.6562 167.148 60.2266 167.062 59.7109C166.984 59.1875 166.945 58.6641 166.945 58.1406ZM167.391 53.2773L167.414 55.1875H165.527C165.082 55.1875 164.695 55.2383 164.367 55.3398C164.039 55.4414 163.77 55.5859 163.559 55.7734C163.348 55.9531 163.191 56.1641 163.09 56.4062C162.996 56.6484 162.949 56.9141 162.949 57.2031C162.949 57.4922 163.016 57.7539 163.148 57.9883C163.281 58.2148 163.473 58.3945 163.723 58.5273C163.973 58.6523 164.266 58.7148 164.602 58.7148C165.109 58.7148 165.551 58.6133 165.926 58.4102C166.301 58.207 166.59 57.957 166.793 57.6602C167.004 57.3633 167.113 57.082 167.121 56.8164L168.012 58.2461C167.887 58.5664 167.715 58.8984 167.496 59.2422C167.285 59.5859 167.016 59.9102 166.688 60.2148C166.359 60.5117 165.965 60.7578 165.504 60.9531C165.043 61.1406 164.496 61.2344 163.863 61.2344C163.059 61.2344 162.328 61.0742 161.672 60.7539C161.023 60.4258 160.508 59.9766 160.125 59.4062C159.75 58.8281 159.562 58.1719 159.562 57.4375C159.562 56.7734 159.688 56.1836 159.938 55.668C160.188 55.1523 160.555 54.7188 161.039 54.3672C161.531 54.0078 162.145 53.7383 162.879 53.5586C163.613 53.3711 164.465 53.2773 165.434 53.2773H167.391ZM176.508 43V61H173.121V43H176.508ZM183.059 59.5703L186.422 48.3203H190.043L184.945 62.9102C184.836 63.2305 184.688 63.5742 184.5 63.9414C184.32 64.3086 184.074 64.6562 183.762 64.9844C183.457 65.3203 183.07 65.5938 182.602 65.8047C182.141 66.0156 181.574 66.1211 180.902 66.1211C180.582 66.1211 180.32 66.1016 180.117 66.0625C179.914 66.0234 179.672 65.9688 179.391 65.8984V63.4258C179.477 63.4258 179.566 63.4258 179.66 63.4258C179.754 63.4336 179.844 63.4375 179.93 63.4375C180.375 63.4375 180.738 63.3867 181.02 63.2852C181.301 63.1836 181.527 63.0273 181.699 62.8164C181.871 62.6133 182.008 62.3477 182.109 62.0195L183.059 59.5703ZM181.652 48.3203L184.406 57.5078L184.887 61.082L182.59 61.3281L178.031 48.3203H181.652ZM201.48 58.3633V61H191.848V58.3633H201.48ZM201.293 50.2656L193.207 61H190.945V58.9961L198.996 48.3203H201.293V50.2656ZM200.098 48.3203V50.9688H191.133V48.3203H200.098ZM209.25 61.2344C208.266 61.2344 207.383 61.0781 206.602 60.7656C205.82 60.4453 205.156 60.0039 204.609 59.4414C204.07 58.8789 203.656 58.2266 203.367 57.4844C203.078 56.7344 202.934 55.9375 202.934 55.0938V54.625C202.934 53.6641 203.07 52.7852 203.344 51.9883C203.617 51.1914 204.008 50.5 204.516 49.9141C205.031 49.3281 205.656 48.8789 206.391 48.5664C207.125 48.2461 207.953 48.0859 208.875 48.0859C209.773 48.0859 210.57 48.2344 211.266 48.5312C211.961 48.8281 212.543 49.25 213.012 49.7969C213.488 50.3438 213.848 51 214.09 51.7656C214.332 52.5234 214.453 53.3672 214.453 54.2969V55.7031H204.375V53.4531H211.137V53.1953C211.137 52.7266 211.051 52.3086 210.879 51.9414C210.715 51.5664 210.465 51.2695 210.129 51.0508C209.793 50.832 209.363 50.7227 208.84 50.7227C208.395 50.7227 208.012 50.8203 207.691 51.0156C207.371 51.2109 207.109 51.4844 206.906 51.8359C206.711 52.1875 206.562 52.6016 206.461 53.0781C206.367 53.5469 206.32 54.0625 206.32 54.625V55.0938C206.32 55.6016 206.391 56.0703 206.531 56.5C206.68 56.9297 206.887 57.3008 207.152 57.6133C207.426 57.9258 207.754 58.168 208.137 58.3398C208.527 58.5117 208.969 58.5977 209.461 58.5977C210.07 58.5977 210.637 58.4805 211.16 58.2461C211.691 58.0039 212.148 57.6406 212.531 57.1562L214.172 58.9375C213.906 59.3203 213.543 59.6875 213.082 60.0391C212.629 60.3906 212.082 60.6797 211.441 60.9062C210.801 61.125 210.07 61.2344 209.25 61.2344Z" fill="#888888"/>
<path d="M106.688 119H99.1172L99.1641 112.672H106.688C108.25 112.672 109.57 112.297 110.648 111.547C111.742 110.797 112.57 109.68 113.133 108.195C113.711 106.695 114 104.852 114 102.664V101.188C114 99.5469 113.836 98.1094 113.508 96.875C113.195 95.625 112.727 94.5859 112.102 93.7578C111.477 92.9141 110.695 92.2812 109.758 91.8594C108.836 91.4375 107.773 91.2266 106.57 91.2266H98.9766V84.875H106.57C108.883 84.875 111 85.2734 112.922 86.0703C114.859 86.8516 116.531 87.9766 117.938 89.4453C119.359 90.8984 120.453 92.625 121.219 94.625C122 96.6094 122.391 98.8125 122.391 101.234V102.664C122.391 105.07 122 107.273 121.219 109.273C120.453 111.273 119.367 113 117.961 114.453C116.555 115.906 114.891 117.031 112.969 117.828C111.062 118.609 108.969 119 106.688 119ZM103.828 84.875V119H95.6016V84.875H103.828ZM138.586 119.469C136.523 119.469 134.68 119.148 133.055 118.508C131.43 117.852 130.055 116.953 128.93 115.812C127.82 114.672 126.969 113.359 126.375 111.875C125.797 110.391 125.508 108.82 125.508 107.164V106.273C125.508 104.414 125.766 102.695 126.281 101.117C126.797 99.5234 127.562 98.1328 128.578 96.9453C129.594 95.7578 130.867 94.8359 132.398 94.1797C133.93 93.5078 135.711 93.1719 137.742 93.1719C139.539 93.1719 141.148 93.4609 142.57 94.0391C143.992 94.6172 145.195 95.4453 146.18 96.5234C147.18 97.6016 147.938 98.9062 148.453 100.438C148.984 101.969 149.25 103.688 149.25 105.594V108.805H128.531V103.859H141.539V103.25C141.555 102.406 141.406 101.688 141.094 101.094C140.797 100.5 140.359 100.047 139.781 99.7344C139.203 99.4219 138.5 99.2656 137.672 99.2656C136.812 99.2656 136.102 99.4531 135.539 99.8281C134.992 100.203 134.562 100.719 134.25 101.375C133.953 102.016 133.742 102.758 133.617 103.602C133.492 104.445 133.43 105.336 133.43 106.273V107.164C133.43 108.102 133.555 108.953 133.805 109.719C134.07 110.484 134.445 111.141 134.93 111.688C135.43 112.219 136.023 112.633 136.711 112.93C137.414 113.227 138.211 113.375 139.102 113.375C140.18 113.375 141.242 113.172 142.289 112.766C143.336 112.359 144.234 111.688 144.984 110.75L148.57 115.016C148.055 115.75 147.32 116.461 146.367 117.148C145.43 117.836 144.305 118.398 142.992 118.836C141.68 119.258 140.211 119.469 138.586 119.469ZM160.43 99.0078V119H152.531V93.6406H159.938L160.43 99.0078ZM159.469 105.453L157.664 105.5C157.664 103.719 157.875 102.078 158.297 100.578C158.719 99.0781 159.344 97.7734 160.172 96.6641C161 95.5547 162.016 94.6953 163.219 94.0859C164.438 93.4766 165.844 93.1719 167.438 93.1719C168.547 93.1719 169.555 93.3438 170.461 93.6875C171.367 94.0156 172.148 94.5391 172.805 95.2578C173.461 95.9609 173.961 96.8828 174.305 98.0234C174.664 99.1484 174.844 100.5 174.844 102.078V119H166.945V103.086C166.945 102.008 166.82 101.195 166.57 100.648C166.336 100.102 165.992 99.7344 165.539 99.5469C165.086 99.3594 164.531 99.2656 163.875 99.2656C163.188 99.2656 162.57 99.4219 162.023 99.7344C161.477 100.047 161.008 100.484 160.617 101.047C160.242 101.594 159.953 102.242 159.75 102.992C159.562 103.742 159.469 104.562 159.469 105.453ZM173.953 105.453L171.75 105.5C171.75 103.719 171.945 102.078 172.336 100.578C172.742 99.0781 173.344 97.7734 174.141 96.6641C174.953 95.5547 175.961 94.6953 177.164 94.0859C178.367 93.4766 179.766 93.1719 181.359 93.1719C182.516 93.1719 183.578 93.3438 184.547 93.6875C185.516 94.0312 186.352 94.5859 187.055 95.3516C187.758 96.1172 188.305 97.1328 188.695 98.3984C189.086 99.6484 189.281 101.195 189.281 103.039V119H181.359V103.039C181.359 101.992 181.234 101.203 180.984 100.672C180.75 100.125 180.406 99.7578 179.953 99.5703C179.5 99.3672 178.961 99.2656 178.336 99.2656C177.586 99.2656 176.938 99.4219 176.391 99.7344C175.844 100.047 175.383 100.484 175.008 101.047C174.648 101.594 174.383 102.242 174.211 102.992C174.039 103.742 173.953 104.562 173.953 105.453ZM192.82 106.578V106.086C192.82 104.227 193.086 102.516 193.617 100.953C194.148 99.375 194.93 98.0078 195.961 96.8516C196.992 95.6953 198.266 94.7969 199.781 94.1562C201.297 93.5 203.047 93.1719 205.031 93.1719C207.031 93.1719 208.789 93.5 210.305 94.1562C211.836 94.7969 213.117 95.6953 214.148 96.8516C215.18 98.0078 215.961 99.375 216.492 100.953C217.023 102.516 217.289 104.227 217.289 106.086V106.578C217.289 108.422 217.023 110.133 216.492 111.711C215.961 113.273 215.18 114.641 214.148 115.812C213.117 116.969 211.844 117.867 210.328 118.508C208.812 119.148 207.062 119.469 205.078 119.469C203.094 119.469 201.336 119.148 199.805 118.508C198.273 117.867 196.992 116.969 195.961 115.812C194.93 114.641 194.148 113.273 193.617 111.711C193.086 110.133 192.82 108.422 192.82 106.578ZM200.719 106.086V106.578C200.719 107.531 200.789 108.422 200.93 109.25C201.07 110.078 201.305 110.805 201.633 111.43C201.961 112.039 202.406 112.516 202.969 112.859C203.531 113.203 204.234 113.375 205.078 113.375C205.906 113.375 206.594 113.203 207.141 112.859C207.703 112.516 208.148 112.039 208.477 111.43C208.805 110.805 209.039 110.078 209.18 109.25C209.32 108.422 209.391 107.531 209.391 106.578V106.086C209.391 105.164 209.32 104.297 209.18 103.484C209.039 102.656 208.805 101.93 208.477 101.305C208.148 100.664 207.703 100.164 207.141 99.8047C206.578 99.4453 205.875 99.2656 205.031 99.2656C204.203 99.2656 203.508 99.4453 202.945 99.8047C202.398 100.164 201.961 100.664 201.633 101.305C201.305 101.93 201.07 102.656 200.93 103.484C200.789 104.297 200.719 105.164 200.719 106.086Z" fill="black"/>
<path d="M1134 0H1348C1356.28 0 1363 6.71573 1363 15V148C1363 156.284 1356.28 163 1348 163H1134V0Z" fill="#C68642"/>
<path d="M1280.07 47.5H1216.93L1214.5 49.9286V113.071L1216.93 115.5H1280.07L1282.5 113.071V49.9286L1280.07 47.5ZM1277.64 110.643H1233.93V100.929H1245.1C1246.56 103.843 1249.96 105.786 1253.36 105.786C1258.7 105.786 1263.07 101.414 1263.07 96.0714C1263.07 90.7286 1258.7 86.3571 1253.36 86.3571C1248.01 86.3571 1243.64 90.7286 1243.64 96.0714H1229.07V110.643H1219.36V52.3571H1229.07V63.5286C1226.16 64.9857 1224.21 68.3857 1224.21 71.7857C1224.21 77.1286 1228.59 81.5 1233.93 81.5C1239.27 81.5 1243.64 77.1286 1243.64 71.7857H1253.36C1253.36 77.1286 1257.73 81.5 1263.07 81.5C1268.41 81.5 1272.79 77.1286 1272.79 71.7857C1272.79 66.4429 1268.41 62.0714 1263.07 62.0714C1259.67 62.0714 1256.27 64.0143 1254.81 66.9286H1242.19C1240.73 64.0143 1237.33 62.0714 1233.93 62.0714V52.3571H1277.64V110.643ZM1248.5 96.0714C1248.5 93.1571 1250.44 91.2143 1253.36 91.2143C1256.27 91.2143 1258.21 93.1571 1258.21 96.0714C1258.21 98.9857 1256.27 100.929 1253.36 100.929C1250.44 100.929 1248.5 98.9857 1248.5 96.0714ZM1233.93 66.9286C1236.84 66.9286 1238.79 68.8714 1238.79 71.7857C1238.79 74.7 1236.84 76.6429 1233.93 76.6429C1231.01 76.6429 1229.07 74.7 1229.07 71.7857C1229.07 68.8714 1231.01 66.9286 1233.93 66.9286ZM1263.07 66.9286C1265.99 66.9286 1267.93 68.8714 1267.93 71.7857C1267.93 74.7 1265.99 76.6429 1263.07 76.6429C1260.16 76.6429 1258.21 74.7 1258.21 71.7857C1258.21 68.8714 1260.16 66.9286 1263.07 66.9286Z" fill="white"/>
</svg>
